<?xml version="1.0" encoding="UTF-8"?> <svg xmlns="http://www.w3.org/2000/svg" id="Layer_1" data-name="Layer 1" viewBox="0 0 235 235"><defs><style>.cls-1{fill:#231f20;}.cls-2{fill:#fbb040;}</style></defs><path class="cls-1" d="M67.33,80.45v-.08c0-8.16,6.4-14.56,15.08-14.56a16.33,16.33,0,0,1,11.36,4.08l-4.56,5.48a9.88,9.88,0,0,0-6.76-2.64c-4,0-7.16,3.4-7.16,7.68v.08a7.4,7.4,0,0,0,7.6,7.76,7.91,7.91,0,0,0,4.48-1.16v-3.4H81.85V78H94.72v12.6a18.88,18.88,0,0,1-12.15,4.32C73.85,94.93,67.33,88.93,67.33,80.45Z"></path><path class="cls-1" d="M101.05,66.37h22.52V73H108.73v4.24h13.44v6.12H108.73v4.44h15v6.6H101.05Z"></path><path class="cls-1" d="M136.57,73.17h-8.4v-6.8h24.55v6.8h-8.39v21.2h-7.76Z"></path><path class="cls-2" d="M66.17,130.21l4.32-5.16a14.42,14.42,0,0,0,9.08,3.36c2.08,0,3.2-.72,3.2-1.92v-.08c0-1.16-.92-1.8-4.72-2.68-6-1.36-10.56-3-10.56-8.8v-.08c0-5.2,4.12-9,10.84-9a17.62,17.62,0,0,1,11.52,3.72L86,115.09a14,14,0,0,0-7.84-2.76c-1.88,0-2.8.8-2.8,1.8v.08c0,1.28,1,1.84,4.84,2.72,6.44,1.4,10.44,3.48,10.44,8.72v.08c0,5.72-4.52,9.12-11.32,9.12A19.56,19.56,0,0,1,66.17,130.21Z"></path><path class="cls-2" d="M96.37,106.37h7.76v11.36l9.64-11.36H123l-10.59,12,10.95,16H114L107,124l-2.84,3.16v7.24H96.37Z"></path><path class="cls-2" d="M127.73,106.37h7.8v28h-7.8Z"></path><path class="cls-2" d="M142.65,106.37h7.24l11.52,14.8v-14.8h7.67v28h-6.8L150.33,119v15.36h-7.68Z"></path><path class="cls-2" d="M68.29,146.37h7.76v10.48H86V146.37h7.76v28H86V163.73h-10v10.64H68.29Z"></path><path class="cls-2" d="M100.73,146.37h22.51V153H108.41v4.24h13.44v6.12H108.41v4.44h15v6.6H100.73Z"></path><path class="cls-2" d="M129.41,146.37h7.76v21.2h13.55v6.8H129.41Z"></path><path class="cls-2" d="M156.05,146.37h12c7.07,0,11.63,3.64,11.63,9.84v.08c0,6.6-5.07,10.08-12,10.08h-3.84v8h-7.76Zm11.44,13.92c2.76,0,4.44-1.44,4.44-3.64v-.08c0-2.4-1.68-3.68-4.48-3.68h-3.64v7.4Z"></path><polygon class="cls-2" points="36.81 206.2 36.81 146.22 19.82 146.22 19.82 223.2 93.75 223.2 93.75 206.2 36.81 206.2"></polygon><polygon class="cls-2" points="19.82 223.2 2.59 223.2 2.59 223.19 19.82 205.97 19.82 223.2"></polygon><path class="cls-1" d="M125.81,11.2a106.12,106.12,0,0,0-106,106v19h17v-19a89,89,0,1,1,89,89H103.75v17h22.06a106,106,0,0,0,0-212Z"></path></svg> 