<?xml version="1.0" encoding="utf-8"?>
<!-- Generator: Adobe Illustrator 23.1.1, SVG Export Plug-In . SVG Version: 6.00 Build 0)  -->
<svg version="1.1" xmlns="http://www.w3.org/2000/svg" xmlns:xlink="http://www.w3.org/1999/xlink" x="0px" y="0px"
	 viewBox="0 0 637.63 149.88" style="enable-background:new 0 0 637.63 149.88;" xml:space="preserve">
<style type="text/css">
	.st0{fill:#FFFFFF;}
	.st1{fill:#FDBB16;}
</style>
<g id="Layer_1">
</g>
<g id="Layer_2">
	<path class="st0" d="M0,27.01h18.39v29.02c3.46-4.06,10.27-8.48,19.94-8.48c13.13,0,19.1,7.4,19.1,18.03v41.08H39.05V73.1
		c0-7.05-3.7-9.31-9.55-9.31c-5.37,0-8.96,2.99-11.1,5.61v37.25H0"/>
	<path class="st0" d="M101.97,106.65v-5.73c-3.58,4.3-10.51,7.16-17.91,7.16c-8.84,0-19.82-5.97-19.82-18.98
		c0-13.97,10.99-18.51,19.82-18.51c7.64,0,14.45,2.39,17.91,6.69v-6.93c0-5.02-4.3-8.36-11.7-8.36c-5.73,0-11.7,2.15-16.36,6.09
		L67.35,56.5c7.4-6.33,17.31-8.96,26.15-8.96c13.85,0,26.87,5.13,26.87,23.05v36.06H101.97z M101.97,91.85v-5.13
		c-1.91-2.63-6.21-4.06-10.27-4.06c-4.9,0-9.19,2.15-9.19,6.69c0,4.54,4.3,6.69,9.19,6.69C95.76,96.03,100.06,94.59,101.97,91.85z"
		/>
	<path class="st0" d="M149.26,99.85v28.78h-18.39V48.98h18.39v6.69c4.54-5.49,10.51-8.12,17.07-8.12
		c14.45,0,25.31,10.75,25.31,30.21c0,19.58-10.87,30.33-25.31,30.33C159.89,108.09,154.03,105.58,149.26,99.85z M172.9,77.76
		c0-8.6-5.49-13.97-12.66-13.97c-3.94,0-8.72,2.15-10.99,5.25v17.55c2.27,2.99,7.04,5.25,10.99,5.25
		C167.41,91.85,172.9,86.48,172.9,77.76z"/>
	<path class="st0" d="M216.72,99.85v28.78h-18.39V48.98h18.39v6.69c4.54-5.49,10.51-8.12,17.07-8.12
		c14.45,0,25.31,10.75,25.31,30.21c0,19.58-10.87,30.33-25.31,30.33C227.35,108.09,221.5,105.58,216.72,99.85z M240.36,77.76
		c0-8.6-5.49-13.97-12.66-13.97c-3.94,0-8.72,2.15-10.98,5.25v17.55c2.27,2.99,7.04,5.25,10.98,5.25
		C234.87,91.85,240.36,86.48,240.36,77.76z"/>
	<path class="st0" d="M267.23,112.74c1.31,0.72,3.11,1.07,4.54,1.07c4.18,0,6.81-0.83,7.76-3.22l1.31-3.11l-22.93-58.51h19.34
		l13.02,36.54l13.13-36.54h19.46l-26.03,65.91c-4.66,12.18-13.37,14.92-24.36,15.16c-1.67,0-5.97-0.36-7.88-0.95L267.23,112.74z"/>
	<path class="st0" d="M456.62,106.65V73.1c0-7.05-3.7-9.31-9.55-9.31c-5.37,0-8.96,2.99-11.1,5.61v37.25h-18.39V27.01h18.39v29.02
		c3.46-4.06,10.27-8.48,19.94-8.48c13.13,0,19.11,7.4,19.11,18.03v41.08H456.62z"/>
	<path class="st0" d="M481.57,77.76c0-16.72,12.66-30.21,30.69-30.21c17.07,0,29.49,12.54,29.49,32.12v3.94h-41.08
		c1.07,5.37,6.09,10.27,14.45,10.27c4.06,0,11.11-1.79,14.33-4.9l7.76,11.46c-5.73,5.13-15.28,7.64-24.12,7.64
		C495.3,108.09,481.57,96.5,481.57,77.76z M512.26,61.76c-8,0-11.1,5.73-11.82,9.91h23.76C523.72,67.61,520.74,61.76,512.26,61.76z"
		/>
	<path class="st0" d="M547.96,106.65V27.01h18.39v79.64H547.96z"/>
	<path class="st0" d="M595.25,99.85v28.78h-18.39V48.98h18.39v6.69c4.54-5.49,10.51-8.12,17.08-8.12
		c14.45,0,25.31,10.75,25.31,30.21c0,19.58-10.87,30.33-25.31,30.33C605.87,108.09,600.02,105.58,595.25,99.85z M618.89,77.76
		c0-8.6-5.49-13.97-12.66-13.97c-3.94,0-8.72,2.15-10.99,5.25v17.55c2.27,2.99,7.04,5.25,10.99,5.25
		C613.4,91.85,618.89,86.48,618.89,77.76z"/>
	<path class="st1" d="M365.69,149.88c-15.01,0-29.29-3.85-40.84-10.92c-2.72-1.67-3.41-5.32-1.5-7.87c1.68-2.24,4.79-2.84,7.18-1.37
		c9.85,6.03,22.14,9.32,35.16,9.32c13.29,0,25.77-3.4,35.7-9.65c2.37-1.49,5.48-0.93,7.18,1.29c1.94,2.53,1.3,6.2-1.41,7.9
		C395.51,145.9,381.01,149.88,365.69,149.88"/>
	<path class="st1" d="M381.17,91.98c-1.22,1.34-1.86,3.07-1.78,4.87c0.08,1.83,0.88,3.53,2.25,4.77c2.84,2.58,7.29,2.39,9.91-0.42
		l15.48-16.65c1.26-1.35,1.91-3.11,1.83-4.94c-0.08-1.83-0.88-3.53-2.25-4.77c-1.34-1.22-3.04-1.82-4.74-1.82
		c-1.9,0-3.79,0.75-5.17,2.24l-15.26,16.41l-0.01,0.01C381.35,91.79,381.25,91.88,381.17,91.98"/>
	<path class="st1" d="M367.16,94.99c0.98,3.58,1.04,7.4,0.04,10.83c-1.26,4.36-3.77,8.05-6.64,11.21c2.3-3.6,4.04-7.59,4.47-11.63
		c0.43-4.05-0.65-7.96-2.76-11.19c-2.14-3.24-5.13-5.89-8.43-8.1c-1.65-1.1-3.39-2.09-5.18-2.98c-1.75-0.87-3.71-1.72-5.35-2.25
		c-2.33-0.75-3.61-3.25-2.85-5.58c0.54-1.68,2.01-2.81,3.65-3.02l0-0.02l23.12-4.46c1.92-0.37,3.58-1.47,4.68-3.08
		c1.09-1.62,1.49-3.57,1.12-5.48c-0.37-1.92-1.46-3.58-3.08-4.67c-1.62-1.09-3.56-1.5-5.48-1.13l-34.7,6.69
		c-1.92,0.37-3.58,1.47-4.67,3.08c-0.79,1.17-1.21,2.52-1.24,3.9l0.08,1.22c0.02,0.12,0.01,0.24,0.03,0.37l-0.01,0l1.65,23.97
		c2.82,19.5,19.64,34.54,39.92,34.54c19.7,0,36.65-15.2,39.91-34.45l-10.65,11.45c-2.25,2.42-5.32,3.64-8.41,3.64
		c-2.75,0-5.52-0.98-7.7-2.96c-2.25-2.04-3.56-4.83-3.69-7.85c-0.02-0.43-0.01-0.85,0.02-1.27c-0.93,0.23-1.89,0.36-2.85,0.36
		C370.45,96.12,368.75,95.73,367.16,94.99"/>
	<path class="st1" d="M391.55,10.19c0.65-1.97,0.49-4.07-0.44-5.92c-0.93-1.85-2.53-3.23-4.5-3.88c-4.06-1.33-8.46,0.87-9.8,4.94
		l-13.44,40.7c-0.25,0.75-0.36,1.52-0.38,2.3l0.46-0.09c3.31-0.64,6.66,0.05,9.46,1.94c1.6,1.08,2.88,2.49,3.82,4.11l1.42-3.53
		L391.55,10.19z"/>
	<path class="st1" d="M358,80.96c0.82,0.79,1.63,1.61,2.4,2.46c0.2-2.25,1.05-4.41,2.5-6.22l2.98-3.73l-13.78,2.66
		c0.2,0.15,0.41,0.29,0.61,0.43C354.56,77.91,356.34,79.37,358,80.96"/>
	<path class="st1" d="M339.68,7.81c-0.72-1.93-2.15-3.46-4.03-4.32c-1.87-0.85-3.97-0.93-5.9-0.2c-1.93,0.72-3.46,2.15-4.32,4.03
		c-0.85,1.87-0.93,3.97-0.21,5.9l14.8,39.55l15.12-2.91c-0.07-0.61-0.2-1.22-0.42-1.81L339.68,7.81z"/>
	<path class="st1" d="M374.35,69.92l-8,10.03c-1.21,1.52-1.76,3.41-1.53,5.33c0.23,1.93,1.21,3.66,2.76,4.87
		c3.17,2.46,7.74,1.95,10.28-1.09c0.04-0.05,0.08-0.1,0.13-0.15l0.11-0.12l18.04-22.6c1.21-1.52,1.76-3.41,1.53-5.33
		c-0.23-1.93-1.21-3.66-2.76-4.87c-1.35-1.06-2.97-1.57-4.58-1.57c-2.19,0-4.36,0.95-5.82,2.78l-7.7,9.65
		c-0.16,0.28-0.32,0.56-0.51,0.83C375.73,68.52,375.07,69.26,374.35,69.92"/>
	<path class="st1" d="M376.29,67.69c0.18-0.27,0.34-0.55,0.51-0.83l-2.44,3.06C375.07,69.26,375.73,68.52,376.29,67.69"/>
	<path class="st1" d="M323.93,68.33l0.03,0.37l0.01,0C323.94,68.57,323.94,68.45,323.93,68.33"/>
	<path class="st1" d="M381.17,91.98c0.09-0.1,0.18-0.19,0.26-0.29l0.01-0.01l-0.23,0.24C381.2,91.94,381.19,91.96,381.17,91.98"/>
	<path class="st1" d="M377.86,89.06c0.04-0.04,0.08-0.08,0.12-0.12l0.11-0.14l-0.11,0.12C377.94,88.95,377.9,89.01,377.86,89.06"/>
	<path class="st1" d="M323.93,68.33l-0.08-1.22C323.83,67.51,323.87,67.92,323.93,68.33"/>
</g>
</svg>
